<?xml version="1.0" standalone="no"?>
<!DOCTYPE svg PUBLIC "-//W3C//DTD SVG 20010904//EN"
 "http://www.w3.org/TR/2001/REC-SVG-20010904/DTD/svg10.dtd">
<svg version="1.0" xmlns="http://www.w3.org/2000/svg"
 width="512.000000pt" height="512.000000pt" viewBox="0 0 512.000000 512.000000"
 preserveAspectRatio="xMidYMid meet">
<metadata>
Created by potrace 1.14, written by Peter Selinger 2001-2017
</metadata>
<g transform="translate(0.000000,512.000000) scale(0.100000,-0.100000)"
fill="#000000" stroke="none">
<path d="M2360 4760 c-432 -53 -772 -244 -897 -505 -18 -38 -33 -75 -33 -81 0
-8 -62 -13 -202 -17 -228 -7 -294 -19 -403 -72 -167 -83 -308 -250 -354 -421
-6 -21 -112 -577 -237 -1234 -208 -1098 -227 -1206 -231 -1330 -6 -160 10
-248 60 -355 85 -177 223 -299 412 -363 l80 -27 2005 0 2005 0 80 27 c189 64
327 186 412 363 50 106 66 196 60 350 -4 128 -10 153 -285 1346 -154 668 -292
1245 -306 1282 -69 183 -227 334 -416 397 -74 25 -195 40 -327 40 -73 0 -93 3
-93 14 0 7 -18 50 -41 95 -115 230 -413 410 -794 477 -107 18 -390 26 -495 14z
m430 -54 c300 -40 535 -143 701 -306 96 -94 139 -170 158 -274 14 -76 14 -726
1 -820 -32 -222 -249 -421 -577 -530 -153 -51 -254 -67 -458 -73 -212 -6 -347
8 -501 53 -222 64 -363 141 -489 268 -93 93 -138 174 -154 276 -6 37 -11 219
-11 420 0 486 9 520 170 680 161 160 398 265 690 305 128 17 341 18 470 1z
m-1352 -1489 c31 -87 68 -144 140 -219 148 -154 359 -260 638 -320 97 -21 135
-23 349 -23 210 1 253 3 341 23 119 26 282 81 368 124 168 84 320 224 380 350
44 94 56 161 56 325 l0 134 110 -57 c409 -209 639 -523 617 -840 -34 -486
-605 -884 -1452 -1011 -172 -26 -678 -26 -850 0 -392 59 -729 174 -972 332
-238 155 -380 319 -449 520 -25 70 -28 94 -28 200 0 103 4 132 27 200 75 227
284 441 579 595 l113 59 6 -167 c5 -134 10 -178 27 -225z"/>
<path d="M1617 3683 c-18 -18 -1 -44 56 -86 133 -100 330 -183 540 -229 89
-19 132 -22 342 -23 265 0 358 13 550 77 188 63 413 200 390 237 -11 19 -31
12 -116 -45 -140 -94 -279 -150 -491 -196 -88 -19 -134 -22 -323 -22 -189 -1
-235 2 -330 21 -116 24 -241 63 -337 106 -66 30 -207 118 -233 147 -18 20 -36
25 -48 13z"/>
<path d="M4110 2608 c-111 -100 -336 -226 -544 -303 -202 -75 -483 -134 -746
-156 -165 -14 -520 -6 -674 15 -447 62 -813 199 -1089 407 -83 62 -93 67 -107
53 -13 -14 -11 -19 25 -50 76 -67 231 -163 364 -228 368 -179 832 -268 1316
-253 542 17 999 146 1355 382 126 84 185 136 177 158 -10 26 -28 20 -77 -25z"/>
</g>
</svg>
